<svg xmlns="http://www.w3.org/2000/svg" version="1.1" xmlns:xlink="http://www.w3.org/1999/xlink" xmlns:svgjs="http://svgjs.dev/svgjs" width="765" height="625" viewBox="0 0 300 300" class="svg-animations " style="background: rgb(255, 255, 255);"><svg viewBox="0 0 129 138" width="100" height="100" fill="#6750a4" x="100" y="80"><svg width="129" height="133" viewBox="0 0 129 133" xmlns="http://www.w3.org/2000/svg">
	<path d="M106.967 15.9111C106.257 20.1195 105.217 24.2647 103.834 28.3088C102.312 32.4666 100.815 36.2074 99.3312 39.5943C94.6634 42.7159 89.5643 45.155 84.1988 46.8484C83.2348 47.1391 82.6893 48.1627 82.9811 49.1232C83.2728 50.0837 84.3003 50.6398 85.2643 50.3364C89.1964 49.1232 92.9764 47.5056 96.566 45.5088C95.0312 48.6935 93.2174 51.7519 91.1752 54.6586C86.3424 61.2302 72.1867 62.0264 72.0472 62.039C71.5398 62.8858 71.0324 63.7578 70.4997 64.6424C70.6265 64.9078 70.8041 65.1606 71.0578 65.3375C75.6368 68.3326 81.1799 69.508 86.5708 68.6233C82.1185 76.3197 77.2097 83.7381 71.8696 90.8405C61.7728 97.21 54.2383 94.695 53.9339 94.5813C53.2236 94.3159 52.4118 94.5308 51.9171 95.0995C51.4224 95.6682 51.3336 96.5022 51.6888 97.1594C53.1982 100.281 55.8746 102.682 59.1472 103.87C55.9 105.993 52.3357 107.598 48.6064 108.698C47.2746 115.333 46.0823 121.298 45.2197 125.582C51.3082 127.477 57.7772 128.501 64.5 128.501C100.118 128.501 129 99.7249 129 64.238C129 44.978 120.463 27.6895 106.967 15.9111Z"></path>
	<path d="M34.8566 101.494C28.0959 85.7852 30.8864 75.9783 33.0174 71.7194C34.9708 74.1585 37.5965 75.9657 40.5773 76.9388C41.2242 77.1284 41.9345 76.9641 42.4038 76.4838C42.8858 76.0036 43.0634 75.3085 42.8605 74.664C41.0212 68.6358 40.2221 56.0485 40.0699 53.521C41.0973 51.3599 42.2263 49.2494 43.4566 47.2021C43.5962 50.4627 44.1416 53.6979 45.0676 56.8195C45.3593 57.7799 46.3867 58.3234 47.3507 58.0327C48.3148 57.742 48.8729 56.7184 48.5684 55.7579C47.2493 51.1704 46.7799 46.3806 47.1732 41.6288C50.674 36.8391 54.7204 32.4412 59.2106 28.5487C58.9696 30.04 58.8808 31.5565 58.9443 33.0604C58.995 34.0715 59.8575 34.8424 60.8723 34.7918C61.887 34.7413 62.6608 33.8819 62.61 32.8709C62.5593 30.1411 62.9652 27.4366 63.8277 24.8459C69.8782 20.2836 76.6643 16.7956 83.8944 14.5082C91.3655 12.246 97.1496 11.5636 101.272 11.5004C90.8581 4.25893 78.1738 0 64.5 0C28.8823 0 0 28.7762 0 64.2631C0 87.4913 12.3673 107.838 30.8991 119.124C31.8885 112.716 33.3218 106.726 34.8566 101.494Z"></path>
	<path d="M42.2136 127.995L37.5838 133C36.29 123.711 36.6705 114.284 38.7 105.134C42.2517 89.9431 62.331 51.2589 84.4779 33.6924C73.2015 46.5956 50.4204 71.2898 41.8711 107.775C40.6407 113.285 40.8691 122.953 42.2136 127.995Z"></path>
	</svg></svg><svg fill="#6750a4" x="82.33499908447266" y="180"><path d="M4.45 26L1.86 26L1.86 6.80Q1.86 5.20 2.98 4.08Q4.10 2.96 5.70 2.96L5.70 2.96L21.06 2.96Q22.66 2.96 23.78 4.08Q24.90 5.20 24.90 6.80L24.90 6.80L24.90 26L22.30 26L22.30 17.58L4.45 17.58L4.45 26ZM4.45 6.80L4.45 14.99L22.30 14.99L22.30 6.80Q22.30 6.29 21.94 5.92Q21.57 5.55 21.06 5.55L21.06 5.55L5.70 5.55Q5.18 5.55 4.82 5.92Q4.45 6.29 4.45 6.80L4.45 6.80ZM31.10 33.36L28.48 33.36L28.48 7.44L43.52 7.44Q45.12 7.44 46.26 8.58Q47.39 9.71 47.39 11.31L47.39 11.31L47.39 22.13Q47.39 23.73 46.26 24.86Q45.12 26 43.52 26L43.52 26L31.10 26L31.10 33.36ZM32.38 23.38L32.38 23.38L43.52 23.38Q44.03 23.38 44.40 23.01Q44.77 22.64 44.77 22.13L44.77 22.13L44.77 11.31Q44.77 10.80 44.40 10.43Q44.03 10.06 43.52 10.06L43.52 10.06L32.38 10.06Q31.87 10.06 31.49 10.43Q31.10 10.80 31.10 11.31L31.10 11.31L31.10 22.13Q31.10 22.64 31.49 23.01Q31.87 23.38 32.38 23.38ZM52.35 33.36L49.73 33.36L49.73 7.44L64.77 7.44Q66.37 7.44 67.50 8.58Q68.64 9.71 68.64 11.31L68.64 11.31L68.64 22.13Q68.64 23.73 67.50 24.86Q66.37 26 64.77 26L64.77 26L52.35 26L52.35 33.36ZM53.63 23.38L53.63 23.38L64.77 23.38Q65.28 23.38 65.65 23.01Q66.02 22.64 66.02 22.13L66.02 22.13L66.02 11.31Q66.02 10.80 65.65 10.43Q65.28 10.06 64.77 10.06L64.77 10.06L53.63 10.06Q53.12 10.06 52.74 10.43Q52.35 10.80 52.35 11.31L52.35 11.31L52.35 22.13Q52.35 22.64 52.74 23.01Q53.12 23.38 53.63 23.38ZM85.89 26L74.75 26Q73.15 26 72.02 24.86Q70.88 23.73 70.88 22.13L70.88 22.13L70.88 11.31Q70.88 9.71 72.02 8.58Q73.15 7.44 74.75 7.44L74.75 7.44L85.89 7.44Q87.52 7.44 88.66 8.58Q89.79 9.71 89.79 11.31L89.79 11.31L89.79 22.13Q89.79 23.73 88.66 24.86Q87.52 26 85.89 26L85.89 26ZM74.75 23.38L74.75 23.38L85.89 23.38Q86.40 23.38 86.77 23.01Q87.14 22.64 87.14 22.13L87.14 22.13L87.14 11.31Q87.14 10.80 86.77 10.43Q86.40 10.06 85.89 10.06L85.89 10.06L74.75 10.06Q74.24 10.06 73.87 10.43Q73.50 10.80 73.50 11.31L73.50 11.31L73.50 22.13Q73.50 22.64 73.87 23.01Q74.24 23.38 74.75 23.38ZM95.68 26L93.06 26L93.06 7.44L95.68 7.44L95.68 26ZM95.68 3.98L93.06 3.98L93.06 1.36L95.68 1.36L95.68 3.98ZM101.92 26L99.30 26L99.30 7.44L114.34 7.44Q115.94 7.44 117.07 8.58Q118.21 9.71 118.21 11.31L118.21 11.31L118.21 26L115.58 26L115.58 11.31Q115.58 10.80 115.22 10.43Q114.85 10.06 114.34 10.06L114.34 10.06L103.20 10.06Q102.69 10.06 102.30 10.43Q101.92 10.80 101.92 11.31L101.92 11.31L101.92 26ZM132.19 26L125.41 26Q123.78 26 122.66 24.86Q121.54 23.73 121.54 22.13L121.54 22.13L121.54 1.36L124.16 1.36L124.16 7.44L132.19 7.44L132.19 10.06L124.16 10.06L124.16 22.13Q124.16 22.64 124.53 23.01Q124.90 23.38 125.41 23.38L125.41 23.38L132.19 23.38L132.19 26Z"></path></svg><text fill="#ffffff" font-family="sans-serif" font-size="16px" x="150" y="220"><tspan dy="0" x="150"></tspan></text></svg>