<svg data-v-423bf9ae="" xmlns="http://www.w3.org/2000/svg" viewBox="0 0 329 90" class="iconLeft"><!----><!----><!----><g  id="36772ee8-1b58-45f9-8cb3-b8fe7228f475" fill="#19CEDA" transform="matrix(4.709575870214664,0,0,4.709575870214664,109.05808386153204,-2.0957604710102586)"><path d="M3.30 3.63L0.20 13.43L1.53 13.43L2.30 10.86L5.96 10.86L6.78 13.43L8.11 13.43L4.86 3.63ZM3.75 6.09C3.88 5.66 3.98 5.19 4.09 4.77C4.20 5.19 4.30 5.64 4.44 6.08L5.63 9.81L2.62 9.81ZM10.44 16.37L10.44 13.45C10.92 13.52 11.40 13.57 11.80 13.57C14.07 13.57 15.29 12.24 15.29 9.76C15.29 7.48 14.21 6.61 12.77 6.61C11.68 6.61 10.89 7.11 10.42 8.30L10.39 6.75L9.17 6.75L9.17 16.37ZM12.49 7.66C13.41 7.66 14.01 8.25 14.01 9.83C14.01 11.68 13.20 12.59 11.76 12.59C11.35 12.59 10.92 12.54 10.46 12.45C10.49 8.37 11.52 7.66 12.49 7.66ZM18.06 16.37L18.06 13.45C18.54 13.52 19.01 13.57 19.42 13.57C21.69 13.57 22.90 12.24 22.90 9.76C22.90 7.48 21.83 6.61 20.38 6.61C19.29 6.61 18.51 7.11 18.03 8.30L18.00 6.75L16.79 6.75L16.79 16.37ZM20.10 7.66C21.03 7.66 21.63 8.25 21.63 9.83C21.63 11.68 20.82 12.59 19.38 12.59C18.97 12.59 18.54 12.54 18.07 12.45C18.10 8.37 19.14 7.66 20.10 7.66ZM27.20 13.57C29.04 13.57 30.41 12.53 30.41 10.07C30.41 7.71 29.13 6.61 27.20 6.61C25.30 6.61 24.01 7.71 24.01 10.07C24.01 12.53 25.38 13.57 27.20 13.57ZM29.13 10.05C29.13 11.72 28.42 12.57 27.20 12.57C26.01 12.57 25.30 11.72 25.30 10.05C25.30 8.37 26.07 7.60 27.20 7.60C28.36 7.60 29.13 8.37 29.13 10.05ZM31.86 3.72L31.86 5.10L33.14 5.10L33.14 3.72ZM31.86 6.75L31.86 11.56C31.86 12.85 32.34 13.47 33.68 13.47C33.84 13.47 33.98 13.45 34.13 13.44L34.13 12.43C33.99 12.46 33.89 12.46 33.77 12.46C33.29 12.46 33.14 12.14 33.14 11.54L33.14 6.75ZM36.55 13.43L36.55 12.82C36.58 10.15 37.31 7.66 38.89 7.66C39.56 7.66 39.86 8.13 39.86 9.31L39.86 13.43L41.10 13.43L41.10 8.90C41.10 7.46 40.60 6.61 39.30 6.61C37.91 6.61 37.03 7.41 36.53 8.85L36.50 6.75L35.28 6.75L35.28 13.43ZM46.52 12.38C46.19 12.45 45.96 12.49 45.64 12.49C44.87 12.49 44.56 12.17 44.56 11.12L44.56 7.71L46.40 7.71L46.40 6.75L44.56 6.75L44.56 5.07L43.96 5.07L43.36 6.75L42.24 6.75L42.24 7.71L43.30 7.71L43.30 11.26C43.30 12.78 43.81 13.50 45.35 13.50C45.88 13.50 46.19 13.44 46.52 13.36Z"></path></g><!----><g id="50edb4ee-21bc-4a22-a2c6-5e2fa5131e34" transform="matrix(2.8125,0,0,2.8125,0,0)" stroke="none" fill="#19CEDA"><path d="M16 32c8.837 0 16-7.163 16-16S24.837 0 16 0 0 7.163 0 16s7.163 16 16 16zM14.817 6.421h2v8.886h8.887v2H14.817V6.421zm-5.959.437h2v14.283h14.283v2H8.858V6.858z"></path></g><!----></svg>