<svg data-v-423bf9ae="" xmlns="http://www.w3.org/2000/svg" viewBox="0 0 242.44897120957248 60" class="font"><!----><!----><defs><linearGradient  gradientTransform="rotate(25)" id="862a2817-b12c-4fca-98ee-7ec52408c0dc" x1="0%" y1="0%" x2="100%" y2="0%"><stop offset="0%" style="stop-color: rgb(146, 13, 233); stop-opacity: 1;"></stop><stop offset="100%" style="stop-color: rgb(21, 54, 241); stop-opacity: 1;"></stop></linearGradient></defs><g  id="3c7967b2-59f5-4e22-bc14-2bd4ee2b7d7d" fill="url(#862a2817-b12c-4fca-98ee-7ec52408c0dc)" transform="matrix(4.222378595280017,0,0,4.222378595280017,-1.1400448278576505,-5.911329098257653)"><path d="M9.62 11.73L9.62 11.73Q9.66 11.82 9.66 11.91L9.66 11.91L9.66 11.91Q9.66 12.08 9.53 12.21L9.53 12.21L9.53 12.21Q9.41 12.33 9.24 12.33L9.24 12.33L9.24 12.33Q8.96 12.33 8.85 12.07L8.85 12.07L7.81 9.59L2.11 9.59L1.08 12.07L1.08 12.07Q0.98 12.33 0.69 12.33L0.69 12.33L0.69 12.33Q0.49 12.33 0.38 12.21L0.38 12.21L0.38 12.21Q0.27 12.08 0.27 11.91L0.27 11.91L0.27 11.91Q0.27 11.82 0.31 11.73L0.31 11.73L4.55 1.69L4.55 1.69Q4.66 1.40 4.96 1.40L4.96 1.40L4.96 1.40Q5.24 1.40 5.36 1.69L5.36 1.69L9.62 11.73ZM2.44 8.83L7.49 8.83L4.96 2.79L2.44 8.83ZM15.01 4.59L15.01 4.59Q16.11 4.59 17.01 5.10L17.01 5.10L17.01 5.10Q17.91 5.61 18.42 6.51L18.42 6.51L18.42 6.51Q18.93 7.41 18.93 8.51L18.93 8.51L18.93 8.51Q18.93 9.60 18.42 10.50L18.42 10.50L18.42 10.50Q17.91 11.40 17.01 11.91L17.01 11.91L17.01 11.91Q16.11 12.42 15.01 12.42L15.01 12.42L15.01 12.42Q14.01 12.42 13.21 11.99L13.21 11.99L13.21 11.99Q12.40 11.56 11.94 10.82L11.94 10.82L11.94 15.19L11.94 15.19Q11.94 15.39 11.83 15.50L11.83 15.50L11.83 15.50Q11.72 15.61 11.52 15.61L11.52 15.61L11.52 15.61Q11.34 15.61 11.22 15.50L11.22 15.50L11.22 15.50Q11.10 15.39 11.10 15.19L11.10 15.19L11.10 8.46L11.10 8.43L11.10 8.43Q11.12 7.35 11.63 6.47L11.63 6.47L11.63 6.47Q12.15 5.59 13.04 5.09L13.04 5.09L13.04 5.09Q13.93 4.59 15.01 4.59L15.01 4.59ZM15.01 11.63L15.01 11.63Q15.88 11.63 16.58 11.23L16.58 11.23L16.58 11.23Q17.28 10.82 17.68 10.11L17.68 10.11L17.68 10.11Q18.09 9.39 18.09 8.51L18.09 8.51L18.09 8.51Q18.09 7.63 17.68 6.92L17.68 6.92L17.68 6.92Q17.28 6.20 16.58 5.79L16.58 5.79L16.58 5.79Q15.88 5.38 15.01 5.38L15.01 5.38L15.01 5.38Q14.14 5.38 13.44 5.79L13.44 5.79L13.44 5.79Q12.74 6.20 12.34 6.92L12.34 6.92L12.34 6.92Q11.94 7.63 11.94 8.51L11.94 8.51L11.94 8.51Q11.94 9.39 12.34 10.11L12.34 10.11L12.34 10.11Q12.74 10.82 13.44 11.23L13.44 11.23L13.44 11.23Q14.14 11.63 15.01 11.63L15.01 11.63ZM24.93 4.59L24.93 4.59Q26.04 4.59 26.94 5.10L26.94 5.10L26.94 5.10Q27.83 5.61 28.34 6.51L28.34 6.51L28.34 6.51Q28.85 7.41 28.85 8.51L28.85 8.51L28.85 8.51Q28.85 9.60 28.34 10.50L28.34 10.50L28.34 10.50Q27.83 11.40 26.94 11.91L26.94 11.91L26.94 11.91Q26.04 12.42 24.93 12.42L24.93 12.42L24.93 12.42Q23.94 12.42 23.14 11.99L23.14 11.99L23.14 11.99Q22.33 11.56 21.87 10.82L21.87 10.82L21.87 15.19L21.87 15.19Q21.87 15.39 21.76 15.50L21.76 15.50L21.76 15.50Q21.64 15.61 21.45 15.61L21.45 15.61L21.45 15.61Q21.27 15.61 21.15 15.50L21.15 15.50L21.15 15.50Q21.03 15.39 21.03 15.19L21.03 15.19L21.03 8.46L21.03 8.43L21.03 8.43Q21.04 7.35 21.56 6.47L21.56 6.47L21.56 6.47Q22.08 5.59 22.97 5.09L22.97 5.09L22.97 5.09Q23.86 4.59 24.93 4.59L24.93 4.59ZM24.93 11.63L24.93 11.63Q25.80 11.63 26.50 11.23L26.50 11.23L26.50 11.23Q27.20 10.82 27.61 10.11L27.61 10.11L27.61 10.11Q28.01 9.39 28.01 8.51L28.01 8.51L28.01 8.51Q28.01 7.63 27.61 6.92L27.61 6.92L27.61 6.92Q27.20 6.20 26.50 5.79L26.50 5.79L26.50 5.79Q25.80 5.38 24.93 5.38L24.93 5.38L24.93 5.38Q24.07 5.38 23.37 5.79L23.37 5.79L23.37 5.79Q22.67 6.20 22.27 6.92L22.27 6.92L22.27 6.92Q21.87 7.63 21.87 8.51L21.87 8.51L21.87 8.51Q21.87 9.39 22.27 10.11L22.27 10.11L22.27 10.11Q22.67 10.82 23.37 11.23L23.37 11.23L23.37 11.23Q24.07 11.63 24.93 11.63L24.93 11.63ZM34.45 4.59L34.45 4.59Q35.55 4.59 36.44 5.10L36.44 5.10L36.44 5.10Q37.34 5.61 37.85 6.51L37.85 6.51L37.85 6.51Q38.36 7.41 38.36 8.51L38.36 8.51L38.36 8.51Q38.36 9.60 37.85 10.50L37.85 10.50L37.85 10.50Q37.34 11.40 36.44 11.91L36.44 11.91L36.44 11.91Q35.55 12.42 34.45 12.42L34.45 12.42L34.45 12.42Q33.35 12.42 32.45 11.91L32.45 11.91L32.45 11.91Q31.56 11.40 31.05 10.50L31.05 10.50L31.05 10.50Q30.53 9.60 30.53 8.51L30.53 8.51L30.53 8.51Q30.53 7.41 31.05 6.51L31.05 6.51L31.05 6.51Q31.56 5.61 32.45 5.10L32.45 5.10L32.45 5.10Q33.35 4.59 34.45 4.59L34.45 4.59ZM34.45 5.38L34.45 5.38Q33.59 5.38 32.89 5.79L32.89 5.79L32.89 5.79Q32.19 6.20 31.78 6.92L31.78 6.92L31.78 6.92Q31.37 7.63 31.37 8.51L31.37 8.51L31.37 8.51Q31.37 9.39 31.78 10.11L31.78 10.11L31.78 10.11Q32.19 10.82 32.89 11.23L32.89 11.23L32.89 11.23Q33.59 11.63 34.45 11.63L34.45 11.63L34.45 11.63Q35.32 11.63 36.02 11.23L36.02 11.23L36.02 11.23Q36.72 10.82 37.12 10.11L37.12 10.11L37.12 10.11Q37.52 9.39 37.52 8.51L37.52 8.51L37.52 8.51Q37.52 7.63 37.12 6.92L37.12 6.92L37.12 6.92Q36.72 6.20 36.02 5.79L36.02 5.79L36.02 5.79Q35.32 5.38 34.45 5.38L34.45 5.38ZM40.74 5.10L40.74 5.10Q40.74 4.90 40.86 4.79L40.86 4.79L40.86 4.79Q40.98 4.68 41.16 4.68L41.16 4.68L41.16 4.68Q41.36 4.68 41.47 4.79L41.47 4.79L41.47 4.79Q41.58 4.90 41.58 5.10L41.58 5.10L41.58 11.91L41.58 11.91Q41.58 12.10 41.47 12.21L41.47 12.21L41.47 12.21Q41.36 12.33 41.16 12.33L41.16 12.33L41.16 12.33Q40.98 12.33 40.86 12.21L40.86 12.21L40.86 12.21Q40.74 12.10 40.74 11.91L40.74 11.91L40.74 5.10ZM41.16 1.76L41.16 1.76Q41.43 1.76 41.62 1.93L41.62 1.93L41.62 1.93Q41.80 2.10 41.80 2.41L41.80 2.41L41.80 2.41Q41.80 2.69 41.62 2.88L41.62 2.88L41.62 2.88Q41.43 3.07 41.15 3.07L41.15 3.07L41.15 3.07Q40.87 3.07 40.68 2.88L40.68 2.88L40.68 2.88Q40.50 2.69 40.50 2.41L40.50 2.41L40.50 2.41Q40.50 2.10 40.70 1.93L40.70 1.93L40.70 1.93Q40.89 1.76 41.16 1.76L41.16 1.76ZM47.88 4.58L47.88 4.58Q48.90 4.58 49.71 5.00L49.71 5.00L49.71 5.00Q50.51 5.42 50.97 6.22L50.97 6.22L50.97 6.22Q51.42 7.03 51.42 8.15L51.42 8.15L51.42 11.91L51.42 11.91Q51.42 12.10 51.30 12.21L51.30 12.21L51.30 12.21Q51.18 12.33 51.00 12.33L51.00 12.33L51.00 12.33Q50.82 12.33 50.70 12.21L50.70 12.21L50.70 12.21Q50.58 12.10 50.58 11.91L50.58 11.91L50.58 8.15L50.58 8.15Q50.58 6.82 49.83 6.12L49.83 6.12L49.83 6.12Q49.08 5.42 47.88 5.42L47.88 5.42L47.88 5.42Q47.14 5.42 46.53 5.70L46.53 5.70L46.53 5.70Q45.92 5.99 45.57 6.50L45.57 6.50L45.57 6.50Q45.22 7.01 45.22 7.63L45.22 7.63L45.22 11.91L45.22 11.91Q45.22 12.10 45.11 12.21L45.11 12.21L45.11 12.21Q45.00 12.33 44.80 12.33L44.80 12.33L44.80 12.33Q44.62 12.33 44.50 12.21L44.50 12.21L44.50 12.21Q44.38 12.10 44.38 11.91L44.38 11.91L44.38 5.10L44.38 5.10Q44.38 4.90 44.50 4.79L44.50 4.79L44.50 4.79Q44.62 4.68 44.80 4.68L44.80 4.68L44.80 4.68Q45.00 4.68 45.11 4.79L45.11 4.79L45.11 4.79Q45.22 4.90 45.22 5.10L45.22 5.10L45.22 5.82L45.22 5.82Q45.70 5.24 46.38 4.91L46.38 4.91L46.38 4.91Q47.07 4.58 47.88 4.58L47.88 4.58ZM57.26 11.48L57.26 11.48Q57.46 11.48 57.58 11.60L57.58 11.60L57.58 11.60Q57.69 11.72 57.69 11.91L57.69 11.91L57.69 11.91Q57.69 12.10 57.58 12.21L57.58 12.21L57.58 12.21Q57.46 12.33 57.26 12.33L57.26 12.33L56.94 12.33L56.94 12.33Q56.17 12.33 55.57 11.98L55.57 11.98L55.57 11.98Q54.96 11.63 54.63 11.03L54.63 11.03L54.63 11.03Q54.29 10.42 54.29 9.65L54.29 9.65L54.29 5.71L53.20 5.71L53.20 5.71Q53.03 5.71 52.93 5.61L52.93 5.61L52.93 5.61Q52.82 5.50 52.82 5.33L52.82 5.33L52.82 5.33Q52.82 5.17 52.93 5.06L52.93 5.06L52.93 5.06Q53.03 4.96 53.20 4.96L53.20 4.96L54.29 4.96L54.29 2.67L54.29 2.67Q54.29 2.48 54.41 2.36L54.41 2.36L54.41 2.36Q54.53 2.24 54.71 2.24L54.71 2.24L54.71 2.24Q54.91 2.24 55.03 2.36L55.03 2.36L55.03 2.36Q55.15 2.48 55.15 2.67L55.15 2.67L55.15 4.96L56.99 4.96L56.99 4.96Q57.16 4.96 57.27 5.06L57.27 5.06L57.27 5.06Q57.37 5.17 57.37 5.33L57.37 5.33L57.37 5.33Q57.37 5.50 57.27 5.61L57.27 5.61L57.27 5.61Q57.16 5.71 56.99 5.71L56.99 5.71L55.15 5.71L55.15 9.65L55.15 9.65Q55.15 10.46 55.65 10.97L55.65 10.97L55.65 10.97Q56.15 11.48 56.95 11.48L56.95 11.48L57.26 11.48Z"></path></g><!----><!----></svg>